<?xml version="1.0" encoding="utf-8"?>
<!DOCTYPE svg PUBLIC "-//W3C//DTD SVG 1.1//EN" "http://www.w3.org/Graphics/SVG/1.1/DTD/svg11.dtd">
<!-- exported from Silhouette Studio® Business Edition V4.5.180ssbe -->
<svg version="1.1" xmlns="http://www.w3.org/2000/svg" xmlns:xlink="http://www.w3.org/1999/xlink" width="310mm" height="330mm" viewBox="0 0 310 330">
<defs>
<path id="path_6dccdfeebdf224e2b4722cbae20f758f" d="M 13.58444 31.79237 C 15.21088 32.81249 16.19832 34.59742 16.19832 36.5173 L 16.19832 46.46004 C 16.31137 48.60816 17.0743 50.67125 18.38605 52.37609 C 20.38373 55.09847 23.62038 56.62883 26.99208 56.44521 C 30.36378 56.2616 33.41509 54.3888 35.10532 51.46558 C 36.00188 49.915 37.65713 48.96004 39.44826 48.96003 L 75.44814 48.96004 C 77.23927 48.96004 78.89452 49.91499 79.79108 51.46558 C 81.48131 54.3888 84.53263 56.2616 87.90433 56.44521 C 91.27604 56.62883 94.51269 55.09847 96.51036 52.37609 C 97.82211 50.67125 98.58504 48.60816 98.69809 46.46004 L 98.69809 36.5173 C 98.69809 34.59742 99.68552 32.81249 101.312 31.79237 C 104.3522 29.88547 106.1981 26.54893 106.1981 22.96011 C 106.1981 22.11484 106.1215 21.2713 105.9693 20.43984 C 105.3664 17.08042 103.6017 14.03986 100.9838 11.84995 C 98.36585 9.660036 95.0614 8.460155 91.6483 8.460154 L 23.24812 8.460153 C 19.83501 8.460155 16.53055 9.660037 13.91263 11.84995 C 11.29471 14.03987 9.529976 17.08042 8.927063 20.43984 C 8.774899 21.27131 8.698345 22.11484 8.698349 22.96011 C 8.698349 26.54893 10.54416 29.88547 13.58444 31.79237 Z" fill-rule="evenodd" fill="none" fill-opacity="1" stroke="#000000" stroke-opacity="1" stroke-width="0.3527778" stroke-linecap="round" stroke-linejoin="round"/>
<path id="path_cbe6df4138da77273eafaa153bb244bf" d="M 29.1989 52.96002 C 29.1989 51.58023 28.07809 50.45942 26.69831 50.45942 C 25.31852 50.45942 24.19771 51.58023 24.19772 52.96002 C 24.19772 54.3398 25.31853 55.46061 26.69831 55.46061 C 28.07809 55.46061 29.1989 54.3398 29.1989 52.96002 Z" fill-rule="evenodd" fill="none" fill-opacity="1" stroke="#000000" stroke-opacity="1" stroke-width="0.3527778" stroke-linecap="round" stroke-linejoin="round"/>
<path id="path_7d13d7189ac27001df1e6a775345fcfb" d="M 26.1983 21.46013 C 26.1983 20.08068 25.07775 18.96014 23.69831 18.96014 C 22.31885 18.96014 21.19831 20.08068 21.19831 21.46013 C 21.19831 22.83959 22.31885 23.96012 23.69831 23.96012 C 25.07775 23.96012 26.1983 22.83959 26.1983 21.46013 Z" fill-rule="evenodd" fill="none" fill-opacity="1" stroke="#000000" stroke-opacity="1" stroke-width="0.3527778" stroke-linecap="round" stroke-linejoin="round"/>
<path id="path_51480c84a01dc9b05ef54d14709ba346" d="M 93.69804 21.46013 C 93.69804 20.08068 92.5775 18.96014 91.19804 18.96014 C 89.8186 18.96014 88.69806 20.08068 88.69806 21.46013 C 88.69806 22.83959 89.8186 23.96012 91.19804 23.96012 C 92.5775 23.96012 93.69804 22.83959 93.69804 21.46013 Z" fill-rule="evenodd" fill="none" fill-opacity="1" stroke="#000000" stroke-opacity="1" stroke-width="0.3527778" stroke-linecap="round" stroke-linejoin="round"/>
<path id="path_e1a0be7c8d52f6d5b1e3f30247f09591" d="M 90.69864 52.96002 C 90.69863 51.58023 89.57782 50.45942 88.19804 50.45942 C 86.81826 50.45942 85.69746 51.58023 85.69746 52.96002 C 85.69746 54.3398 86.81826 55.46061 88.19804 55.46061 C 89.57783 55.46061 90.69864 54.3398 90.69864 52.96002 Z" fill-rule="evenodd" fill="none" fill-opacity="1" stroke="#000000" stroke-opacity="1" stroke-width="0.3527778" stroke-linecap="round" stroke-linejoin="round"/>
</defs>
<g>
<use xlink:href="#path_6dccdfeebdf224e2b4722cbae20f758f"/>
</g>
<g>
<use xlink:href="#path_cbe6df4138da77273eafaa153bb244bf"/>
</g>
<g>
<use xlink:href="#path_7d13d7189ac27001df1e6a775345fcfb"/>
</g>
<g>
<use xlink:href="#path_51480c84a01dc9b05ef54d14709ba346"/>
</g>
<g>
<use xlink:href="#path_e1a0be7c8d52f6d5b1e3f30247f09591"/>
</g>
</svg>