<?xml version="1.0" encoding="utf-8"?>
<!DOCTYPE svg PUBLIC "-//W3C//DTD SVG 1.1//EN" "http://www.w3.org/Graphics/SVG/1.1/DTD/svg11.dtd">
<!-- exported from Silhouette Studio® Business Edition V4.5.180ssbe -->
<svg version="1.1" xmlns="http://www.w3.org/2000/svg" xmlns:xlink="http://www.w3.org/1999/xlink" width="310mm" height="320mm" viewBox="0 0 310 320">
<defs>
<path id="path_48a562ee259521e53266da3b3742dccf" d="M 17.03621 60.25148 C 28.99292 60.07696 40.92876 59.18762 52.77932 57.58834 C 63.23901 56.17675 73.88574 57.62219 83.59048 61.77138 C 94.78017 66.32448 106.6983 68.82559 118.7744 69.15501 L 118.8144 69.15685 C 120.1942 69.21992 121.5753 69.25147 122.9565 69.25148 L 144.0362 69.25148 C 145.4949 69.25148 146.8939 68.67201 147.9253 67.64056 C 148.9568 66.60912 149.5362 65.21017 149.5362 63.75148 L 149.5362 15.75148 C 149.5362 14.29279 148.9567 12.89384 147.9253 11.86239 C 146.8938 10.83094 145.4949 10.25148 144.0362 10.25148 L 122.9565 10.25148 C 121.5753 10.25149 120.1942 10.28304 118.8143 10.34611 L 118.7744 10.34795 C 106.6983 10.67737 94.78017 13.17848 83.59047 17.73157 C 73.88573 21.88076 63.23901 23.32621 52.77933 21.91463 C 40.92878 20.31532 28.99294 19.42603 17.03622 19.25148 L 14.18622 19.25148 C 13.25796 19.25148 12.36772 19.62023 11.71134 20.27661 C 11.05496 20.93298 10.68622 21.82323 10.68622 22.75148 L 10.68622 56.75148 C 10.68622 57.67974 11.05496 58.56998 11.71134 59.22636 C 12.36772 59.88274 13.25796 60.25148 14.18622 60.25148 L 17.03621 60.25148 Z" fill-rule="evenodd" fill="none" fill-opacity="1" stroke="#000000" stroke-opacity="1" stroke-width="0.3527778" stroke-linecap="round" stroke-linejoin="round"/>
<path id="path_7c9e2c1adce4109041da4def99f9015e" d="M 149.0363 63.74898 C 149.0363 66.64172 146.6749 68.7515 144.0337 68.7515 L 122.958 68.7515 C 110.0428 68.7515 96.56873 66.64674 83.32671 61.11713 C 76.99509 58.47316 66.31858 55.29857 52.71339 57.0927 C 49.23878 57.55089 39.48859 58.86011 26.53521 59.4612 C 21.88214 59.67712 14.5004 59.87379 13.59819 59.69315 C 12.03888 59.38091 11.18622 58.0172 11.18622 56.74837 L 11.18622 22.75459 C 11.18622 21.2258 12.32158 19.82185 14.18878 19.75148 C 17.80074 19.61536 28.28168 20.11952 30.44657 20.24831 C 33.18853 20.41142 35.60574 20.59317 37.69888 20.76878 C 39.95346 20.95795 42.36722 21.18562 44.93787 21.46425 C 49.09094 21.91438 51.67776 22.27368 52.71315 22.41023 C 56.20898 22.87126 58.9612 22.9574 61.13678 22.93759 C 75.88892 22.80328 82.57372 18.01534 93.33248 14.85938 C 106.2194 11.07913 116.5332 10.7515 124.8739 10.7515 L 144.0337 10.7515 C 146.8321 10.7515 149.0363 13.01846 149.0363 15.75398 L 149.0363 63.74898 Z" fill-rule="evenodd" fill="none" fill-opacity="1" stroke="#FF0000" stroke-opacity="1" stroke-width="0.3527778" stroke-linecap="round" stroke-linejoin="round"/>
<path id="path_bf1eec6155c7fa9afcde0b24ab3c4f2e" d="M 147.7862 16.00148 C 147.7862 14.34613 146.4416 13.00148 144.7862 13.00148 C 143.1309 13.00148 141.7862 14.34613 141.7862 16.00148 C 141.7862 17.65683 143.1309 19.00148 144.7862 19.00148 C 146.4416 19.00148 147.7862 17.65683 147.7862 16.00148 Z" fill-rule="evenodd" fill="none" fill-opacity="1" stroke="#000000" stroke-opacity="1" stroke-width="0.3527778" stroke-linecap="round" stroke-linejoin="round"/>
<path id="path_6f8e6481fb1c241c2e40618532aea507" d="M 147.7862 63.50147 C 147.7862 61.84612 146.4416 60.50147 144.7862 60.50147 C 143.1309 60.50147 141.7862 61.84612 141.7862 63.50147 C 141.7862 65.15682 143.1309 66.50147 144.7862 66.50147 C 146.4416 66.50147 147.7862 65.15682 147.7862 63.50147 Z" fill-rule="evenodd" fill="none" fill-opacity="1" stroke="#000000" stroke-opacity="1" stroke-width="0.3527778" stroke-linecap="round" stroke-linejoin="round"/>
<path id="path_fb40efc4b86a928cc6ef14522d848b6c" d="M 18.53623 50.75148 C 18.53623 49.09613 17.19158 47.75148 15.53623 47.75148 C 13.88087 47.75148 12.53623 49.09613 12.53623 50.75148 C 12.53623 52.40683 13.88087 53.75148 15.53623 53.75148 C 17.19158 53.75148 18.53623 52.40683 18.53623 50.75148 Z" fill-rule="evenodd" fill="none" fill-opacity="1" stroke="#000000" stroke-opacity="1" stroke-width="0.3527778" stroke-linecap="round" stroke-linejoin="round"/>
<path id="path_2f5f7cf654fdf1dd7cf3742c5d66c1f6" d="M 18.53623 28.75148 C 18.53623 27.09613 17.19158 25.75148 15.53623 25.75148 C 13.88087 25.75148 12.53623 27.09613 12.53623 28.75148 C 12.53623 30.40683 13.88087 31.75148 15.53623 31.75148 C 17.19158 31.75148 18.53623 30.40683 18.53623 28.75148 Z" fill-rule="evenodd" fill="none" fill-opacity="1" stroke="#000000" stroke-opacity="1" stroke-width="0.3527778" stroke-linecap="round" stroke-linejoin="round"/>
<path id="path_683aa9e4c91256982c79fdc1b6999484" d="M 125.2862 39.75148 C 125.2862 38.09612 123.9416 36.75148 122.2862 36.75148 C 120.6309 36.75148 119.2862 38.09612 119.2862 39.75148 C 119.2862 41.40683 120.6309 42.75148 122.2862 42.75148 C 123.9416 42.75148 125.2862 41.40683 125.2862 39.75148 Z" fill-rule="evenodd" fill="none" fill-opacity="1" stroke="#000000" stroke-opacity="1" stroke-width="0.3527778" stroke-linecap="round" stroke-linejoin="round"/>
<path id="path_88049abb0e55eabadf87564dd96b7322" d="M 125.2862 63.50147 C 125.2862 61.84612 123.9416 60.50147 122.2862 60.50147 C 120.6309 60.50147 119.2862 61.84612 119.2862 63.50147 C 119.2862 65.15682 120.6309 66.50147 122.2862 66.50147 C 123.9416 66.50147 125.2862 65.15682 125.2862 63.50147 Z" fill-rule="evenodd" fill="none" fill-opacity="1" stroke="#000000" stroke-opacity="1" stroke-width="0.3527778" stroke-linecap="round" stroke-linejoin="round"/>
<path id="path_490dccc0fe1da32a7f45da82db8e6a88" d="M 125.2862 16.00148 C 125.2862 14.34613 123.9416 13.00148 122.2862 13.00148 C 120.6309 13.00148 119.2862 14.34613 119.2862 16.00148 C 119.2862 17.65683 120.6309 19.00148 122.2862 19.00148 C 123.9416 19.00148 125.2862 17.65683 125.2862 16.00148 Z" fill-rule="evenodd" fill="none" fill-opacity="1" stroke="#000000" stroke-opacity="1" stroke-width="0.3527778" stroke-linecap="round" stroke-linejoin="round"/>
<path id="path_8d70cf87d58c4d5c630c80086abd5912" d="M 36.03624 29.75148 C 36.03624 28.09613 34.69159 26.75148 33.03624 26.75148 C 31.38088 26.75148 30.03624 28.09613 30.03624 29.75148 C 30.03624 31.40683 31.38088 32.75148 33.03624 32.75148 C 34.69159 32.75148 36.03624 31.40683 36.03624 29.75148 Z" fill-rule="evenodd" fill="none" fill-opacity="1" stroke="#000000" stroke-opacity="1" stroke-width="0.3527778" stroke-linecap="round" stroke-linejoin="round"/>
<path id="path_fb843962401d47db47994ec0fda701ee" d="M 83.53622 30.25148 C 83.53622 28.59613 82.19157 27.25148 80.53622 27.25148 C 78.88087 27.25148 77.53622 28.59613 77.53622 30.25148 C 77.53622 31.90683 78.88087 33.25148 80.53622 33.25148 C 82.19157 33.25148 83.53622 31.90683 83.53622 30.25148 Z" fill-rule="evenodd" fill="none" fill-opacity="1" stroke="#000000" stroke-opacity="1" stroke-width="0.3527778" stroke-linecap="round" stroke-linejoin="round"/>
<path id="path_1b17f80ad83b9875d18d482f635ba609" d="M 36.03624 49.75148 C 36.03624 48.09612 34.69159 46.75148 33.03624 46.75148 C 31.38088 46.75148 30.03624 48.09612 30.03624 49.75148 C 30.03624 51.40683 31.38088 52.75148 33.03624 52.75148 C 34.69159 52.75148 36.03624 51.40683 36.03624 49.75148 Z" fill-rule="evenodd" fill="none" fill-opacity="1" stroke="#000000" stroke-opacity="1" stroke-width="0.3527778" stroke-linecap="round" stroke-linejoin="round"/>
<path id="path_45113cf6f57c810791b403610d28c3cb" d="M 83.53622 49.25148 C 83.53622 47.59612 82.19157 46.25148 80.53622 46.25148 C 78.88087 46.25148 77.53622 47.59612 77.53622 49.25148 C 77.53622 50.90683 78.88087 52.25148 80.53622 52.25148 C 82.19157 52.25148 83.53622 50.90683 83.53622 49.25148 Z" fill-rule="evenodd" fill="none" fill-opacity="1" stroke="#000000" stroke-opacity="1" stroke-width="0.3527778" stroke-linecap="round" stroke-linejoin="round"/>
<path id="path_7bc01f48ed6bd2a79bd745e3e9528c0e" d="M 290.104 16.98059 C 290.104 15.32524 288.7593 13.98059 287.104 13.98058 C 285.4487 13.98058 284.1041 15.32523 284.1041 16.98058 C 284.1041 18.63593 285.4487 19.98058 287.1041 19.98058 C 288.7594 19.98058 290.104 18.63593 290.104 16.98059 Z" fill-rule="evenodd" fill="none" fill-opacity="1" stroke="#000000" stroke-opacity="1" stroke-width="0.3527778" stroke-linecap="round" stroke-linejoin="round"/>
<path id="path_0fd1dc3a6b616598b1ff5c439c79f3ab" d="M 290.1041 64.48062 C 290.1041 62.82527 288.7594 61.48062 287.1041 61.48062 C 285.4487 61.48062 284.1041 62.82527 284.1041 64.48062 C 284.1041 66.13597 285.4487 67.48061 287.1041 67.48061 C 288.7594 67.48061 290.1041 66.13597 290.1041 64.48062 Z" fill-rule="evenodd" fill="none" fill-opacity="1" stroke="#000000" stroke-opacity="1" stroke-width="0.3527778" stroke-linecap="round" stroke-linejoin="round"/>
<path id="path_a15619e1d8bc7a9a58c7d508bca6c29a" d="M 159.3544 61.23048 C 171.3111 61.05597 183.2469 60.16665 195.0974 58.56738 C 205.5571 57.15581 216.2038 58.60126 225.9085 62.75045 C 237.0981 67.30356 249.0162 69.80467 261.0922 70.13411 L 261.1323 70.13594 C 262.5121 70.19901 263.8932 70.23058 265.2744 70.23059 L 286.354 70.23061 C 287.8127 70.23061 289.2117 69.65115 290.2431 68.61971 C 291.2746 67.58826 291.854 66.18931 291.854 64.73062 L 291.854 16.73069 C 291.854 15.272 291.2745 13.87305 290.243 12.8416 C 289.2116 11.81015 287.8127 11.23068 286.354 11.23068 L 265.2744 11.23067 C 263.8932 11.23067 262.5121 11.26222 261.1322 11.32528 L 261.0922 11.32712 C 249.0162 11.65653 237.0981 14.15763 225.9084 18.7107 C 216.2037 22.85987 205.557 24.30531 195.0974 22.89371 C 183.2469 21.29439 171.3111 20.40509 159.3544 20.23053 L 156.5044 20.23053 C 155.5761 20.23053 154.6859 20.59927 154.0295 21.25565 C 153.3731 21.91203 153.0044 22.80227 153.0044 23.73052 L 153.0045 57.73048 C 153.0045 58.65874 153.3732 59.54897 154.0295 60.20535 C 154.6859 60.86173 155.5762 61.23048 156.5044 61.23048 L 159.3544 61.23048 Z" fill-rule="evenodd" fill="none" fill-opacity="1" stroke="#000000" stroke-opacity="1" stroke-width="0.3527778" stroke-linecap="round" stroke-linejoin="round"/>
<path id="path_bf6c2c704268d1690cb582f914d4a694" d="M 153.5045 23.73305 C 153.5045 23.56389 153.5943 21.25376 155.9164 20.78882 C 156.8764 20.59661 165.572 20.82425 171.6467 21.16291 C 191.3568 22.26173 195.0185 24.06641 203.9509 23.91007 C 218.0151 23.6639 224.8225 19.1988 234.0386 16.32605 C 248.2402 11.89922 259.7539 11.73065 267.1917 11.73066 L 286.3508 11.73067 C 289.2439 11.73068 291.354 14.09226 291.354 16.73378 L 291.354 64.72749 C 291.354 67.30611 289.3069 69.73062 286.3509 69.73062 L 265.2752 69.73059 C 250.7492 69.73058 240.1522 67.12301 232.9666 64.79433 C 224.8722 62.17114 217.5012 57.67227 203.4555 57.54441 C 194.6483 57.46424 191.1288 59.24846 171.0883 60.32817 C 165.7177 60.61752 156.8297 60.90535 155.7733 60.63986 C 154.5799 60.33996 153.5045 59.2373 153.5045 57.72791 L 153.5045 23.73305 Z" fill-rule="evenodd" fill="none" fill-opacity="1" stroke="#FF0000" stroke-opacity="1" stroke-width="0.3527778" stroke-linecap="round" stroke-linejoin="round"/>
<path id="path_88719b802963e1746532cec5c1c4aa16" d="M 160.8544 51.73048 C 160.8544 50.07513 159.5097 48.73048 157.8544 48.73048 C 156.199 48.73047 154.8544 50.07512 154.8544 51.73047 C 154.8544 53.38582 156.199 54.73046 157.8544 54.73047 C 159.5097 54.73047 160.8544 53.38583 160.8544 51.73048 Z" fill-rule="evenodd" fill="none" fill-opacity="1" stroke="#000000" stroke-opacity="1" stroke-width="0.3527778" stroke-linecap="round" stroke-linejoin="round"/>
<path id="path_4fa6754e5fa77a4ccea12b7e7e0c7c3e" d="M 160.8543 29.73051 C 160.8543 28.07516 159.5097 26.73051 157.8543 26.73051 C 156.199 26.73051 154.8543 28.07515 154.8543 29.7305 C 154.8544 31.38585 156.199 32.7305 157.8543 32.7305 C 159.5097 32.7305 160.8543 31.38586 160.8543 29.73051 Z" fill-rule="evenodd" fill="none" fill-opacity="1" stroke="#000000" stroke-opacity="1" stroke-width="0.3527778" stroke-linecap="round" stroke-linejoin="round"/>
<path id="path_d4202d6db1bcba4f687beeaa0d030269" d="M 267.6041 40.73059 C 267.6041 39.07524 266.2595 37.73059 264.6041 37.73059 C 262.9487 37.73059 261.6041 39.07523 261.6041 40.73058 C 261.6041 42.38593 262.9487 43.73058 264.6041 43.73058 C 266.2595 43.73058 267.6041 42.38594 267.6041 40.73059 Z" fill-rule="evenodd" fill="none" fill-opacity="1" stroke="#000000" stroke-opacity="1" stroke-width="0.3527778" stroke-linecap="round" stroke-linejoin="round"/>
<path id="path_750d382a9ce0ecfca0afd066cc67bab5" d="M 267.6041 64.48059 C 267.6041 62.82524 266.2595 61.48059 264.6041 61.48059 C 262.9488 61.48059 261.6041 62.82524 261.6041 64.48059 C 261.6041 66.13594 262.9488 67.48059 264.6041 67.48059 C 266.2595 67.48059 267.6041 66.13594 267.6041 64.48059 Z" fill-rule="evenodd" fill="none" fill-opacity="1" stroke="#000000" stroke-opacity="1" stroke-width="0.3527778" stroke-linecap="round" stroke-linejoin="round"/>
<path id="path_a140c688544cc1d4dc8e9ad99a3438af" d="M 267.6041 16.98053 C 267.6041 15.32518 266.2595 13.98053 264.6042 13.98053 C 262.9488 13.98053 261.6042 15.32518 261.6042 16.98053 C 261.6042 18.63588 262.9488 19.98052 264.6042 19.98052 C 266.2595 19.98053 267.6041 18.63588 267.6041 16.98053 Z" fill-rule="evenodd" fill="none" fill-opacity="1" stroke="#000000" stroke-opacity="1" stroke-width="0.3527778" stroke-linecap="round" stroke-linejoin="round"/>
<path id="path_a1aafe44ca7695810528c89e35e50610" d="M 202.1042 49.73054 C 202.1042 48.76492 201.3199 47.98054 200.3542 47.98054 C 199.3886 47.98054 198.6042 48.76492 198.6042 49.73054 C 198.6042 50.69616 199.3886 51.48053 200.3542 51.48053 C 201.3198 51.48053 202.1042 50.69616 202.1042 49.73054 Z" fill-rule="evenodd" fill="none" fill-opacity="1" stroke="#000000" stroke-opacity="1" stroke-width="0.3527778" stroke-linecap="round" stroke-linejoin="round"/>
<path id="path_a1cd81fc467ced7173b7eb090ef7e8b8" d="M 202.1042 31.73056 C 202.1042 30.76494 201.3199 29.98056 200.3542 29.98056 C 199.3886 29.98056 198.6042 30.76494 198.6042 31.73056 C 198.6042 32.69618 199.3886 33.48056 200.3542 33.48056 C 201.3199 33.48056 202.1042 32.69619 202.1042 31.73056 Z" fill-rule="evenodd" fill="none" fill-opacity="1" stroke="#000000" stroke-opacity="1" stroke-width="0.3527778" stroke-linecap="round" stroke-linejoin="round"/>
</defs>
<g>
<use xlink:href="#path_48a562ee259521e53266da3b3742dccf"/>
</g>
<g>
<use xlink:href="#path_7c9e2c1adce4109041da4def99f9015e"/>
</g>
<g>
<use xlink:href="#path_bf1eec6155c7fa9afcde0b24ab3c4f2e"/>
</g>
<g>
<use xlink:href="#path_6f8e6481fb1c241c2e40618532aea507"/>
</g>
<g>
<use xlink:href="#path_fb40efc4b86a928cc6ef14522d848b6c"/>
</g>
<g>
<use xlink:href="#path_2f5f7cf654fdf1dd7cf3742c5d66c1f6"/>
</g>
<g>
<use xlink:href="#path_683aa9e4c91256982c79fdc1b6999484"/>
</g>
<g>
<use xlink:href="#path_88049abb0e55eabadf87564dd96b7322"/>
</g>
<g>
<use xlink:href="#path_490dccc0fe1da32a7f45da82db8e6a88"/>
</g>
<g>
<use xlink:href="#path_8d70cf87d58c4d5c630c80086abd5912"/>
</g>
<g>
<use xlink:href="#path_fb843962401d47db47994ec0fda701ee"/>
</g>
<g>
<use xlink:href="#path_1b17f80ad83b9875d18d482f635ba609"/>
</g>
<g>
<use xlink:href="#path_45113cf6f57c810791b403610d28c3cb"/>
</g>
<g>
<use xlink:href="#path_7bc01f48ed6bd2a79bd745e3e9528c0e"/>
</g>
<g>
<use xlink:href="#path_0fd1dc3a6b616598b1ff5c439c79f3ab"/>
</g>
<g>
<use xlink:href="#path_a15619e1d8bc7a9a58c7d508bca6c29a"/>
</g>
<g>
<use xlink:href="#path_bf6c2c704268d1690cb582f914d4a694"/>
</g>
<g>
<use xlink:href="#path_88719b802963e1746532cec5c1c4aa16"/>
</g>
<g>
<use xlink:href="#path_4fa6754e5fa77a4ccea12b7e7e0c7c3e"/>
</g>
<g>
<use xlink:href="#path_d4202d6db1bcba4f687beeaa0d030269"/>
</g>
<g>
<use xlink:href="#path_750d382a9ce0ecfca0afd066cc67bab5"/>
</g>
<g>
<use xlink:href="#path_a140c688544cc1d4dc8e9ad99a3438af"/>
</g>
<g>
<use xlink:href="#path_a1aafe44ca7695810528c89e35e50610"/>
</g>
<g>
<use xlink:href="#path_a1cd81fc467ced7173b7eb090ef7e8b8"/>
</g>
</svg>